<?xml version="1.0" encoding="utf-8"?>
<!-- Generator: Adobe Illustrator 20.0.0, SVG Export Plug-In . SVG Version: 6.00 Build 0)  -->
<svg version="1.1" id="Layer_1" xmlns="http://www.w3.org/2000/svg" xmlns:xlink="http://www.w3.org/1999/xlink" x="0px" y="0px"
	 viewBox="0 0 49.3 47" style="enable-background:new 0 0 49.3 47;" xml:space="preserve">
<style type="text/css">
	.st0{fill:#FFFFFF;}
</style>
<path class="st0" d="M26.6,10.2H2.4c-1.3,0-2.4,1.1-2.4,2.4v32C0,46,1.1,47,2.4,47h14.3V36.1c0-0.3,0.3-0.6,0.6-0.6h5.6
	c0.3,0,0.6,0.3,0.6,0.6V47h3.1H29V12.7C29,11.3,27.9,10.2,26.6,10.2z M12.3,40.9c0,0.3-0.3,0.6-0.6,0.6H6.1c-0.3,0-0.6-0.3-0.6-0.6
	v-4.8c0-0.3,0.3-0.6,0.6-0.6h5.6c0.3,0,0.6,0.3,0.6,0.6V40.9z M12.3,30.9c0,0.3-0.3,0.6-0.6,0.6H6.1c-0.3,0-0.6-0.3-0.6-0.6v-4.8
	c0-0.3,0.3-0.6,0.6-0.6h5.6c0.3,0,0.6,0.3,0.6,0.6V30.9z M12.3,20.8c0,0.3-0.3,0.6-0.6,0.6H6.1c-0.3,0-0.6-0.3-0.6-0.6v-4.8
	c0-0.3,0.3-0.6,0.6-0.6h5.6c0.3,0,0.6,0.3,0.6,0.6V20.8z M23.5,30.9c0,0.3-0.3,0.6-0.6,0.6h-5.6c-0.3,0-0.6-0.3-0.6-0.6v-4.8
	c0-0.3,0.3-0.6,0.6-0.6h5.6c0.3,0,0.6,0.3,0.6,0.6V30.9z M23.5,20.8c0,0.3-0.3,0.6-0.6,0.6h-5.6c-0.3,0-0.6-0.3-0.6-0.6v-4.8
	c0-0.3,0.3-0.6,0.6-0.6h5.6c0.3,0,0.6,0.3,0.6,0.6V20.8z M49.3,2.4v42.2c0,1.3-1.1,2.4-2.4,2.4H31.5V12.7c0-2.7-2.2-4.9-4.9-4.9H22
	V2.4C22,1.1,23.1,0,24.4,0h22.5C48.2,0,49.3,1.1,49.3,2.4z M43.8,16.1c0-0.3-0.3-0.6-0.6-0.6h-5.6c-0.3,0-0.6,0.3-0.6,0.6v4.8
	c0,0.3,0.3,0.6,0.6,0.6h5.6c0.3,0,0.6-0.3,0.6-0.6V16.1z M43.8,6c0-0.3-0.3-0.6-0.6-0.6h-5.6C37.3,5.4,37,5.7,37,6v4.8
	c0,0.3,0.3,0.6,0.6,0.6h5.6c0.3,0,0.6-0.3,0.6-0.6V6z M43.8,26.1c0-0.3-0.3-0.6-0.6-0.6h-5.6c-0.3,0-0.6,0.3-0.6,0.6v4.8
	c0,0.3,0.3,0.6,0.6,0.6h5.6c0.3,0,0.6-0.3,0.6-0.6V26.1z M43.8,36.1c0-0.3-0.3-0.6-0.6-0.6h-5.6c-0.3,0-0.6,0.3-0.6,0.6v4.8
	c0,0.3,0.3,0.6,0.6,0.6h5.6c0.3,0,0.6-0.3,0.6-0.6V36.1z"/>
</svg>