<?xml version="1.0" encoding="utf-8"?>
<!-- Generator: Adobe Illustrator 20.0.0, SVG Export Plug-In . SVG Version: 6.00 Build 0)  -->
<svg version="1.1" id="Layer_1" xmlns="http://www.w3.org/2000/svg" xmlns:xlink="http://www.w3.org/1999/xlink" x="0px" y="0px"
	 viewBox="0 0 182.9 36" style="enable-background:new 0 0 182.9 36;" xml:space="preserve">
<style type="text/css">
	.st0{fill:#009EDB;}
	.st1{fill:#FFFFFF;}
	.st2{fill:#0568AC;}
</style>
<g>
	<g>
		<polygon class="st0" points="25.6,36 25.6,31 51.2,24.6 51.2,29.5 		"/>
		<polygon class="st1" points="25.6,31 0.1,24.6 25.6,18.1 51.2,24.6 		"/>
		<polygon class="st2" points="0,24.6 0.1,29.5 25.6,36 25.6,31 		"/>
	</g>
	<g>
		<polygon class="st0" points="25.6,26.9 25.6,22 51.2,15.5 51.2,20.4 		"/>
		<polygon class="st1" points="25.6,22 0.1,15.5 25.6,9.1 51.2,15.5 		"/>
		<polygon class="st2" points="0,15.5 0.1,20.4 25.6,26.9 25.6,22 		"/>
	</g>
	<g>
		<polygon class="st0" points="25.6,17.8 25.6,12.9 51.2,6.5 51.2,11.4 		"/>
		<polygon class="st1" points="25.6,12.9 0.1,6.5 25.6,0 51.2,6.5 		"/>
		<polygon class="st2" points="0,6.5 0.1,11.4 25.6,17.8 25.6,12.9 		"/>
	</g>
	<g>
		<path class="st1" d="M66.5,20.5v12.8h-1.2v-31h8.6c3.2,0,5.8,0.8,7.6,2.4c1.8,1.6,2.8,3.8,2.8,6.7c0,2.8-0.9,5.1-2.8,6.7
			c-1.8,1.6-4.4,2.5-7.6,2.5H66.5z M66.5,3.3v16.1h7.4c2.9,0,5.2-0.7,6.8-2.1c1.6-1.4,2.4-3.4,2.4-6c0-2.5-0.8-4.5-2.4-5.9
			c-1.6-1.4-3.9-2.1-6.8-2.1H66.5z"/>
		<path class="st1" d="M96.6,2.2h1.2v29.9h16.1v1.1H96.6V2.2z"/>
		<path class="st1" d="M144.1,22.9h-14.8l-3.9,10.3h-1.2l12-31h1.2l12,31h-1.3L144.1,22.9z M129.7,21.9h14l-7-18.3L129.7,21.9z"/>
		<path class="st1" d="M160.9,33.2v-31h1.2l19.6,29v-29h1.2v31h-1.2l-19.6-29v29H160.9z"/>
	</g>
</g>
</svg>
